<mxfile host="app.diagrams.net" modified="2022-11-27T08:59:57.594Z" agent="5.0 (Windows NT 10.0; Win64; x64) AppleWebKit/537.36 (KHTML, like Gecko) Chrome/107.0.0.0 Safari/537.36" etag="r1b-gZ-yiqj15KsKkniM" version="20.5.1" type="github">
  <diagram id="fK1RLiKV_KRQ0fGaLFCF" name="第 1 页">
    <mxGraphModel dx="1422" dy="753" grid="1" gridSize="10" guides="1" tooltips="1" connect="1" arrows="1" fold="1" page="1" pageScale="1" pageWidth="827" pageHeight="1169" math="0" shadow="0">
      <root>
        <mxCell id="0" />
        <mxCell id="1" parent="0" />
        <mxCell id="uGJ9grCX7de8dJG0m_us-3" style="edgeStyle=orthogonalEdgeStyle;rounded=0;orthogonalLoop=1;jettySize=auto;html=1;exitX=0.5;exitY=1;exitDx=0;exitDy=0;entryX=0.5;entryY=0;entryDx=0;entryDy=0;fontSize=16;" edge="1" parent="1" source="uGJ9grCX7de8dJG0m_us-1" target="uGJ9grCX7de8dJG0m_us-2">
          <mxGeometry relative="1" as="geometry" />
        </mxCell>
        <mxCell id="uGJ9grCX7de8dJG0m_us-1" value="&lt;font style=&quot;font-size: 20px;&quot;&gt;master&lt;br&gt;主分支&lt;/font&gt;" style="rounded=1;whiteSpace=wrap;html=1;" vertex="1" parent="1">
          <mxGeometry x="320" y="80" width="120" height="60" as="geometry" />
        </mxCell>
        <mxCell id="uGJ9grCX7de8dJG0m_us-2" value="&lt;font style=&quot;font-size: 16px;&quot;&gt;mybatis_dynamic_Simplify&lt;br&gt;mybatis-plus多数据源简单写法&lt;/font&gt;" style="rounded=1;whiteSpace=wrap;html=1;" vertex="1" parent="1">
          <mxGeometry x="265" y="390" width="230" height="70" as="geometry" />
        </mxCell>
      </root>
    </mxGraphModel>
  </diagram>
</mxfile>
